<?xml version="1.0" encoding="UTF-8"?>
<svg width="16px" height="16px" viewBox="0 0 16 16" version="1.1" xmlns="http://www.w3.org/2000/svg" xmlns:xlink="http://www.w3.org/1999/xlink">
    <!-- Generator: Sketch 50 (54983) - http://www.bohemiancoding.com/sketch -->
    <title>Icons/Portfolio/Manage Investors/Default</title>
    <desc>Created with Sketch.</desc>
    <defs></defs>
    <g id="Icons/Portfolio/Manage-Investors/Default" stroke="none" stroke-width="1" fill="none" fill-rule="evenodd">
        <g id="Profile-Icon" transform="translate(-1.000000, 0.000000)" fill="#ABB4BA" fill-rule="nonzero">
            <path d="M9.19140625,10.375 C7.02775661,10.375 5.31640625,8.17469239 5.31640625,5.5 C5.31640625,2.82530761 7.02775661,0.625 9.19140625,0.625 C11.3550559,0.625 13.0664062,2.82530761 13.0664062,5.5 C13.0664062,8.17469239 11.3550559,10.375 9.19140625,10.375 Z M9.19140625,9.625 C10.8937499,9.625 12.3164062,7.79587036 12.3164062,5.5 C12.3164062,3.20412964 10.8937499,1.375 9.19140625,1.375 C7.48906264,1.375 6.06640625,3.20412964 6.06640625,5.5 C6.06640625,7.79587036 7.48906264,9.625 9.19140625,9.625 Z" id="Oval"></path>
            <path d="M6.75510178,8.57418872 L6.84621658,9.31863354 C4.56364171,9.59800463 2.73529059,11.2767602 1.35669169,14.4111115 L0.670163783,14.1091522 C2.14605707,10.7535946 4.17586024,8.88986972 6.75510178,8.57418872 Z" id="Path-3"></path>
            <path d="M17.3250229,8.57418872 L17.4161377,9.31863354 C15.1335628,9.59800463 13.3052117,11.2767602 11.9266128,14.4111115 L11.2400849,14.1091522 C12.7159782,10.7535946 14.7457814,8.88986972 17.3250229,8.57418872 Z" id="Path-3-Copy" transform="translate(14.328111, 11.492650) scale(-1, 1) translate(-14.328111, -11.492650) "></path>
        </g>
    </g>
</svg>