<svg xmlns="http://www.w3.org/2000/svg" width="57" height="56" viewBox="0 0 57 56">
    <g fill="none" fill-rule="evenodd">
        <path stroke="#768187" stroke-linecap="round" stroke-linejoin="round" d="M28.161 48.607c-11.013 0-19.941-9.275-19.941-20.714 0-8.077 4.45-15.075 10.942-18.49M28.166 7.203c11.013 0 19.942 9.274 19.942 20.714 0 8.077-4.451 15.075-10.945 18.49"/>
        <path stroke="#2CB591" stroke-linejoin="round" d="M33.962 41.338a13.45 13.45 0 0 1-5.696 1.26c-7.698 0-13.94-6.483-13.94-14.48 0-7.996 6.242-14.48 13.94-14.48 7.698 0 13.94 6.484 13.94 14.48a14.98 14.98 0 0 1-.681 4.483"/>
        <path stroke="#768187" stroke-linecap="round" stroke-linejoin="round" d="M31.223 10.642l-3.254-3.38 3.254-3.38M25.2 45.076l3.343 3.472-3.343 3.473"/>
        <path fill="#2CB591" d="M28.772 34.155c2.239 0 3.681-1.399 3.681-3.192v-.04c0-1.853-1.29-2.542-3.871-3.193v6.425h.19zm-4.118-10.032v.04c0 1.714 1.12 2.443 3.567 3.055v-6.13c-2.182 0-3.567 1.38-3.567 3.035zm-.892 8.259l.285-.296c1.138 1.163 2.6 1.912 4.174 2.05V27.63c-2.619-.61-3.984-1.517-3.984-3.45v-.038c0-1.873 1.574-3.41 3.984-3.41V19.57h.36v1.163c1.595.079 2.81.65 3.872 1.616l-.266.315c-1.024-.926-2.068-1.497-3.605-1.577v6.249c2.809.65 4.288 1.557 4.288 3.568v.039c0 2.03-1.593 3.567-4.117 3.567h-.171v1.932h-.36V34.49c-1.689-.138-3.283-.926-4.46-2.11z"/>
        <path stroke="#2BB8C0" d="M22.106 1C10.002 3.891 1 14.81 1 27.838c0 10.814 6.202 20.174 15.231 24.697M33.34 55C46.22 52.706 56 41.418 56 27.838c0-10.633-5.997-19.861-14.783-24.467"/>
    </g>
</svg>
