<svg xmlns="http://www.w3.org/2000/svg" width="56" height="56" viewBox="0 0 56 56">
    <g fill="none" fill-rule="evenodd">
        <g stroke-linecap="round">
            <path stroke="#2CB591" d="M14.729 22.384l7.98 10.233 8.49-17.936 7.955 16.655 7.727-6.406"/>
            <path stroke="#2CB591" d="M14.364 26.639l8.354-1.448 8.582-1.449 7.86-1.882 8.451-2.607"/>
            <path stroke="#768187" stroke-linejoin="round" d="M10.648 40.774h37.604M8.899 10.086v28.84"/>
        </g>
        <path stroke="#2BB8C0" d="M3.977 15.664A26.885 26.885 0 0 0 1 28c0 3.016.495 5.917 1.407 8.625m8.134 11.971A26.893 26.893 0 0 0 28 55a26.9 26.9 0 0 0 18.075-6.943m7.703-12.002A26.99 26.99 0 0 0 55 28C55 13.088 42.912 1 28 1c-5.56 0-10.727 1.68-15.021 4.56"/>
    </g>
</svg>
