<?xml version="1.0" encoding="UTF-8"?>
<svg width="119px" height="66px" viewBox="0 0 119 66" version="1.1" xmlns="http://www.w3.org/2000/svg" xmlns:xlink="http://www.w3.org/1999/xlink">
    <!-- Generator: Sketch 46.2 (44496) - http://www.bohemiancoding.com/sketch -->
    <title>Logo</title>
    <desc>Created with Sketch.</desc>
    <defs></defs>
    <g id="Home-Page" stroke="none" stroke-width="1" fill="none" fill-rule="evenodd">
        <g id="HP---V6D---Mobile" transform="translate(-128.000000, -60.000000)" fill="#687179">
            <g id="Logo" transform="translate(128.000000, 60.000000)">
                <path d="M6.30609913,61.2 L11.2523925,54.1666667 L9.68861591,54.1666667 L5.64319383,60 L1.63176689,54.1666667 L0,54.1666667 L4.94629339,61.2166667 L4.94629339,65.8333333 L6.30609913,65.8333333 L6.30609913,61.2 Z M13.5130696,54.1666667 L13.5130696,65.8333333 L14.8558777,65.8333333 L14.8558777,54.1666667 L13.5130696,54.1666667 Z M26.9411513,54.1666667 L18.3403799,54.1666667 L18.3403799,65.8333333 L27.0261391,65.8333333 L27.0261391,64.6333333 L19.6831881,64.6333333 L19.6831881,60.55 L26.1762605,60.55 L26.1762605,59.35 L19.6831881,59.35 L19.6831881,55.3666667 L26.9411513,55.3666667 L26.9411513,54.1666667 Z M29.728753,65.8333333 L37.7686045,65.8333333 L37.7686045,64.6166667 L31.0715612,64.6166667 L31.0715612,54.1666667 L29.728753,54.1666667 L29.728753,65.8333333 Z M50.7037566,59.9833333 C50.7037566,63.2833333 48.1201257,65.8333333 44.3806599,65.8333333 L40.25025,65.8333333 L40.25025,54.1666667 L44.3806599,54.1666667 C48.1201257,54.1666667 50.7037566,56.6833333 50.7037566,59.9833333 Z M49.3099557,60.0166667 C49.3099557,57.4166667 47.3892301,55.3833333 44.3806599,55.3833333 L41.5930581,55.3833333 L41.5930581,64.6166667 L44.3806599,64.6166667 C47.3892301,64.6166667 49.3099557,62.6166667 49.3099557,60.0166667 Z M61.8881588,62.3833333 L61.8881588,62.35 C61.8881588,60.3166667 60.5283531,59.4666667 58.1146979,58.85 C56.0579917,58.3333333 55.5480646,58.0833333 55.5480646,57.3166667 L55.5480646,57.2833333 C55.5480646,56.7166667 56.0749893,56.2666667 57.077846,56.2666667 C58.0807028,56.2666667 59.1175546,56.7 60.1714041,57.4166667 L61.5312098,55.4833333 C60.3243822,54.5333333 58.8455935,54 57.1118412,54 C54.6811884,54 52.9474361,55.4 52.9474361,57.5166667 L52.9474361,57.55 C52.9474361,59.8666667 54.4942151,60.5166667 56.8908727,61.1166667 C58.8795886,61.6166667 59.2875304,61.95 59.2875304,62.6 L59.2875304,62.6333333 C59.2875304,63.3166667 58.6416226,63.7333333 57.5707756,63.7333333 C56.2109699,63.7333333 55.0891301,63.1833333 54.0182831,62.3166667 L52.4715041,64.1333333 C53.8993001,65.3833333 55.7180403,66 57.5197829,66 C60.0864162,66 61.8881588,64.7 61.8881588,62.3833333 Z M72.9195829,56.5333333 L72.9195829,54.1666667 L63.0609913,54.1666667 L63.0609913,56.5333333 L66.6814741,56.5333333 L66.6814741,65.8333333 L69.2991001,65.8333333 L69.2991001,56.5333333 L72.9195829,56.5333333 Z M85.2088273,65.8333333 L82.1492644,65.8333333 L79.5996286,62.1 L77.5429224,62.1 L77.5429224,65.8333333 L74.9252964,65.8333333 L74.9252964,54.1666667 L80.3645194,54.1666667 C83.1691187,54.1666667 84.8518783,55.6166667 84.8518783,58.0166667 L84.8518783,58.05 C84.8518783,59.9333333 83.8150264,61.1166667 82.3022425,61.6666667 L85.2088273,65.8333333 Z M82.2002571,58.1833333 L82.2002571,58.15 C82.2002571,57.05 81.4183688,56.4833333 80.1435509,56.4833333 L77.5429224,56.4833333 L77.5429224,59.8333333 L80.1945436,59.8333333 C81.4693615,59.8333333 82.2002571,59.1666667 82.2002571,58.1833333 Z M96.2742465,65.8333333 L96.2742465,63.55 L89.8151693,63.55 L89.8151693,61.1 L95.4243679,61.1 L95.4243679,58.8166667 L89.8151693,58.8166667 L89.8151693,56.45 L96.1892587,56.45 L96.1892587,54.1666667 L87.2145408,54.1666667 L87.2145408,65.8333333 L96.2742465,65.8333333 Z M107.66262,65.8333333 L107.66262,63.55 L101.203542,63.55 L101.203542,61.1 L106.812741,61.1 L106.812741,58.8166667 L101.203542,58.8166667 L101.203542,56.45 L107.577632,56.45 L107.577632,54.1666667 L98.6029139,54.1666667 L98.6029139,65.8333333 L107.66262,65.8333333 Z M119,56.5333333 L119,54.1666667 L109.141408,54.1666667 L109.141408,56.5333333 L112.761891,56.5333333 L112.761891,65.8333333 L115.379517,65.8333333 L115.379517,56.5333333 L119,56.5333333 Z" id="YIELDSTREET"></path>
                <g id="YS_Logo_blk-Copy-2" transform="translate(41.000000, 0.000000)">
                    <path d="M4.40820024,11.1436705 C4.40820024,11.1436705 4.38156483,11.5088952 4.50114078,11.6306848 C4.62071673,11.7524745 5.17878505,12.0908593 5.32485472,12.1719562 C5.32485472,12.1719562 6.05562812,12.821453 6.49397881,13.0109196 L6.65336619,13.1327093 C6.65336619,13.1327093 6.66668389,13.4439656 7.423951,13.6739807 C7.423951,13.6739807 7.83580797,14.0934624 8.03514845,14.2016878 C8.23434724,14.3099132 9.13782571,15.324779 9.13782571,15.324779 C9.13782571,15.324779 9.17763713,15.6360353 9.36365991,15.8255019 C9.54968268,16.0149685 11.1971106,18.3423921 11.3166865,18.5452787 C11.4361208,18.7483096 11.5158853,18.6941969 11.5158853,18.6941969 C11.5158853,18.6941969 12.3129638,17.5034287 13.9072626,17.2327209 C13.9072626,17.2327209 13.9472157,17.0027058 13.774369,16.7996749 C13.6016639,16.5967883 13.4289588,16.5155471 13.362512,16.5155471 C13.2962068,16.5155471 13.1633132,16.5021272 13.1633132,16.5021272 C13.1633132,16.5021272 12.4989866,15.5547941 12.4458575,15.5142456 C12.3927284,15.4736971 12.5521157,15.3788917 12.3262815,15.0677797 C12.1004474,14.7565234 11.7948486,14.6076052 11.7284018,14.6076052 C11.6620967,14.6076052 11.4760739,14.6347337 11.4760739,14.6347337 C11.4760739,14.6347337 11.0775346,14.2693647 10.9977701,14.0934624 C10.9180056,13.91756 10.4929726,12.9432427 10.1342447,12.9162585 L9.77551688,12.8891299 L8.88535611,11.9419411 C8.88535611,11.9419411 8.71265104,11.346557 8.23434724,11.3736855 C7.75604345,11.4006698 7.6897383,11.3601213 7.60997378,11.4412182 L7.6764206,11.2924443 C7.6764206,11.2924443 7.47708013,10.4534809 6.48066111,10.6023991 C6.48066111,10.6023991 6.40103826,10.1152404 5.86960535,10.074692 C5.86960535,10.074692 5.86960535,9.62808177 5.7367117,9.56040481 C5.7367117,9.56040481 5.88278137,9.23572856 5.723394,9.04626194 C5.723394,9.04626194 5.88278137,8.76198985 5.82965224,8.53197477 C5.82965224,8.53197477 6.70649531,5.379152 8.64620421,3.26832352 C10.5859131,1.15735074 10.6656776,0.751433287 10.6656776,0.751433287 C10.6656776,0.751433287 10.6257245,0.534982459 10.2669967,0.940899912 C9.90841053,1.34681737 7.41729215,3.51868498 6.87920038,4.16818177 C6.34125029,4.81767855 4.88650403,6.56313803 4.40820024,8.87714169 C4.40820024,8.87714169 4.27530659,9.01913343 4.18236604,9.58753331 C4.18236604,9.58753331 3.94321414,9.69575873 4.07596611,10.2775786 C4.07596611,10.2775786 3.81032049,10.6293833 4.40820024,11.1436705 L4.40820024,11.1436705 L4.40820024,11.1436705 L4.40820024,11.1436705 Z M19.2214501,18.6941969 C19.2214501,18.6941969 19.3012147,18.7483096 19.4207906,18.5452787 C19.5403665,18.3423921 21.1877944,16.0149685 21.3736755,15.8255019 C21.5596983,15.6360353 21.5996514,15.324779 21.5996514,15.324779 C21.5996514,15.324779 22.5029882,14.3099132 22.7023287,14.2016878 C22.9015275,14.0934624 23.3133844,13.6739807 23.3133844,13.6739807 C24.0706515,13.4439656 24.0839692,13.1327093 24.0839692,13.1327093 L24.2433566,13.0109196 C24.681849,12.821453 25.4124807,12.1719562 25.4124807,12.1719562 C25.5586921,12.0908593 26.1166187,11.7524745 26.2361947,11.6306848 C26.3557706,11.5088952 26.3292769,11.1436705 26.3292769,11.1436705 C26.9270149,10.6293833 26.6613693,10.2775786 26.6613693,10.2775786 C26.794263,9.69575873 26.5551111,9.58753331 26.5551111,9.58753331 C26.4620288,9.01913343 26.3292769,8.87714169 26.3292769,8.87714169 C25.8509731,6.56313803 24.3962268,4.81767855 23.8581351,4.16818177 C23.3200433,3.51868498 20.8290666,1.34681737 20.4703387,0.940899912 C20.1116109,0.534982459 20.0717995,0.751433287 20.0717995,0.751433287 C20.0717995,0.751433287 20.1514223,1.15735074 22.0911312,3.26832352 C24.0308401,5.379152 24.9076832,8.53197477 24.9076832,8.53197477 C24.8545541,8.76198985 25.0139414,9.04626194 25.0139414,9.04626194 C24.8545541,9.23572856 25.0006237,9.56040481 25.0006237,9.56040481 C24.8678718,9.62808177 24.8678718,10.074692 24.8678718,10.074692 C24.3364388,10.1152404 24.2566743,10.6023991 24.2566743,10.6023991 C23.2602553,10.4534809 23.0610565,11.2924443 23.0610565,11.2924443 L23.1273617,11.4412182 C23.0477388,11.3601213 22.981292,11.4006698 22.5029882,11.3736855 C22.0246844,11.346557 21.8519793,11.9419411 21.8519793,11.9419411 L20.9619602,12.8891299 C20.9619602,12.8891299 20.9619602,12.8891299 20.6032324,12.9162585 C20.2445045,12.9432427 19.8193299,13.91756 19.7395653,14.0934624 C19.6599425,14.2693647 19.2614032,14.6347337 19.2614032,14.6347337 C19.2614032,14.6347337 19.0753805,14.6076052 19.0089336,14.6076052 C18.9424868,14.6076052 18.6368881,14.7565234 18.4110539,15.0677797 C18.1852197,15.3788917 18.3446071,15.4736971 18.2914779,15.5142456 C18.2383488,15.5547941 17.5740222,16.5021272 17.5740222,16.5021272 C17.5740222,16.5021272 17.4412703,16.5155471 17.3748234,16.5155471 C17.3083766,16.5155471 17.1356715,16.5967883 16.9629665,16.7996749 C16.7902614,17.0027058 16.8300728,17.2327209 16.8300728,17.2327209 C18.4243716,17.5034287 19.2214501,18.6941969 19.2214501,18.6941969 L19.2214501,18.6941969 L19.2214501,18.6941969 L19.2214501,18.6941969 Z M18.8552134,3.65836791 C19.9019279,3.65836791 20.9266825,3.75634799 21.9215431,3.9423514 C21.8420619,3.84740164 21.7610223,3.75375058 21.6772908,3.66269693 C21.0570259,2.98765895 20.5699381,2.4260412 20.2148939,1.97755508 C19.7657757,1.94436595 19.3124072,1.92676129 18.8552134,1.92676129 C14.6174927,1.92676129 10.7064808,3.37525023 7.57186248,5.81046635 C6.89393486,7.06920007 6.51296362,8.23485993 6.40613866,8.58392297 C6.41393093,8.75520772 6.38077836,8.91639144 6.33870009,9.04727204 C6.35527638,9.12100962 6.36292697,9.19575731 6.36377704,9.26963919 C9.46325931,5.8231648 13.9154799,3.65836791 18.8552134,3.65836791 L18.8552134,3.65836791 L18.8552134,3.65836791 L18.8552134,3.65836791 Z M18.842179,22.1340334 C18.7574558,22.2067609 18.6588481,22.2956501 18.5578319,22.3885796 C18.5421057,22.4067615 18.5272296,22.4247991 18.5139119,22.4428366 C18.502861,22.5035872 18.5004525,22.5727071 18.5170288,22.6419714 C18.5464977,22.7054636 18.6000519,22.7861276 18.6929924,22.8786243 C18.7131107,22.8916113 18.7333706,22.9045984 18.7577391,22.9159981 C18.7577391,22.9159981 18.7444214,22.913545 18.7223197,22.9083502 C18.7251533,22.9109476 18.7269951,22.9132564 18.7299703,22.9159981 C18.7299703,22.9159981 18.6948342,22.9102261 18.644397,22.8864165 C18.5328967,22.8510629 18.3720925,22.7799227 18.3131546,22.6555356 C18.2819855,22.6718416 18.2380655,22.699403 18.1781358,22.7451463 C18.000472,22.9145551 17.8675784,23.0445699 17.8675784,23.0445699 C17.8790543,23.0240792 17.8916636,23.0037329 17.9038478,22.9832422 C17.8831629,23.0028671 17.8621946,23.0226362 17.8398095,23.0445699 C17.8398095,23.0445699 17.8770708,22.9979608 17.9391256,22.9246562 C18.2717847,22.3943516 18.8253194,21.8613054 18.9899488,21.7718391 C19.1670459,21.6757349 19.4353834,21.7793427 19.4353834,21.7793427 L19.2101159,21.8904541 C19.104141,21.9535134 18.9701139,22.0383622 18.842179,22.1340334 L18.842179,22.1340334 L18.842179,22.1340334 L18.842179,22.1340334 Z M15.8602892,30.439396 C15.8602892,30.439396 15.7752826,30.4529603 15.6783751,30.4617626 L15.1309326,30.4669574 C15.0079564,30.4603196 14.8771879,30.439396 14.8771879,30.439396 C13.1499955,29.6681096 13.5153822,29.2047605 13.5153822,29.2047605 C13.4555942,29.387445 13.7345575,29.6411254 13.844216,29.7324676 C13.9537329,29.8238099 14.5516126,29.9353542 14.8107411,29.9455995 C15.0697278,29.9557006 15.2092803,29.762915 15.2092803,29.762915 C15.2092803,29.762915 15.2292569,29.397546 15.2092803,29.2656553 C15.1893038,29.1336203 15.1295158,29.022076 14.9402345,28.8494925 C14.7509531,28.6769091 14.0833679,28.0681051 14.1629908,28.0376576 C14.2427553,28.0072102 14.4320367,28.1187545 14.740894,28.4639215 C15.0497513,28.8089441 15.3686677,28.7581503 15.3686677,28.7581503 C15.3686677,28.7581503 15.6875841,28.8089441 15.9964414,28.4639215 C16.3052988,28.1187545 16.4945801,28.0072102 16.5743446,28.0376576 C16.6541092,28.0681051 15.986524,28.6769091 15.797101,28.8494925 C15.6078196,29.022076 15.5480316,29.1336203 15.5280551,29.2656553 C15.5082202,29.397546 15.5280551,29.762915 15.5280551,29.762915 C15.5280551,29.762915 15.6676076,29.9557006 15.926736,29.9455995 C16.1857228,29.9353542 16.7836026,29.8238099 16.8932611,29.7324676 C17.0027779,29.6411254 17.2817412,29.387445 17.2219532,29.2047605 C17.2219532,29.2047605 17.5873399,29.6681096 15.8602892,30.439396 L15.8602892,30.439396 L15.8602892,30.439396 L15.8602892,30.439396 Z M12.4465659,22.6679455 C12.3550421,22.8369214 12.0732452,22.9024339 12.0178493,22.9138336 C12.0114738,22.9152766 12.0075068,22.9159981 12.0075068,22.9159981 C12.2292323,22.7126787 12.2562928,22.5581328 12.259268,22.5121009 C12.258843,22.5061846 12.2589847,22.5001239 12.2584179,22.4943519 C12.0573773,22.1566886 11.3298625,21.7793427 11.3298625,21.7793427 C11.3298625,21.7793427 11.5982,21.6757349 11.7752971,21.7718391 C11.9523942,21.8680875 12.5796012,22.4773245 12.8975259,23.0445699 C12.6621993,22.8152763 12.524772,22.7134002 12.4465659,22.6679455 L12.4465659,22.6679455 L12.4465659,22.6679455 L12.4465659,22.6679455 Z M22.8335222,2.36341476 C23.4642711,2.94667759 24.0452912,3.4989158 24.2912437,3.79588634 L24.3011611,3.80771899 C24.4948345,4.04163018 24.7985914,4.41017379 25.1339424,4.88752002 C31.3761186,7.43370327 35.7970285,13.6575304 35.7970285,20.913828 C35.7970285,23.3608767 35.2932227,25.6898876 34.3874774,27.8007161 C34.2506168,27.7815242 34.1114893,27.766084 33.9683949,27.7601677 C32.6398834,27.706055 31.7895341,28.1391009 31.7895341,28.1391009 C31.7895341,28.1391009 30.9924555,28.2203421 30.8330682,28.1662294 C30.6735391,28.1119724 30.2485061,28.301439 30.0358479,28.436793 C29.8407578,28.5610357 28.8837252,29.9150078 26.4893726,30.1372307 L26.06859,31.1059203 L26.0670315,31.0574353 L25.5598255,32.1682609 L25.5972284,30.8073624 C25.4106389,31.0108262 25.2392089,31.2717216 25.2001059,31.5684036 C25.0666455,32.5809605 24.3348804,33.6552781 24.303853,33.7004442 L24.1563665,33.9151634 C24.1334148,34.0370974 24.1130132,34.1421482 24.0958702,34.2223793 C23.9320908,34.9844305 23.5879557,35.1542723 23.4475532,35.1917904 L23.260822,35.2418627 L23.1055433,35.1252679 C23.0821665,35.1078075 23.0599231,35.0890484 23.0385298,35.0692793 C22.8571824,35.2720215 22.6251143,35.3943884 22.4667187,35.4454708 L22.1193251,35.5578809 L21.9743888,35.2171873 C21.9658882,35.1971295 21.7632891,34.7163201 21.7134186,34.1764917 C21.6924503,33.9502285 21.7591805,33.5002993 21.8508459,33.0256948 L21.7802904,32.9275705 C21.6303955,32.7189119 21.6056019,32.3508011 21.705768,31.8324736 C21.4667578,31.4939445 21.6285536,31.0124135 21.7353786,30.7735961 C21.6860748,30.6431484 21.6676567,30.4956732 21.6711986,30.3518056 C21.3776425,29.812843 21.5751412,28.9845579 21.6220365,28.8092327 L21.7428875,28.3569948 C21.7520966,28.2930696 21.7637141,28.2256813 21.7763235,28.1567056 C21.7621557,28.1408325 21.7479879,28.125681 21.7338202,28.1096636 L21.6478218,28.0769074 L21.650372,28.0145695 C20.8236828,27.0582898 19.9427311,25.6818068 19.168321,23.7008488 L19.1949564,23.4097946 C19.1949564,23.4097946 19.7728596,23.3083513 19.9720584,23.3895925 C19.9720584,23.3895925 19.9522235,23.3219156 19.8060122,23.2406744 C19.6599425,23.1595775 19.3277084,23.0377878 19.1418273,23.0377878 C19.1418273,23.0377878 19.5934957,22.7265315 19.4872374,22.1581316 C19.4872374,22.1581316 19.7662007,22.2123886 19.8990944,22.3070498 C19.8990944,22.3070498 20.1913754,22.3206141 20.284316,22.4288395 C20.284316,22.4288395 20.1315874,22.0499062 19.6134722,21.8063269 L20.2311868,21.9484629 C20.2311868,21.9484629 20.5899147,21.7657784 20.6497027,21.6237867 C20.7094906,21.4816506 21.0682185,21.2989661 22.1044489,21.359861 C23.1406794,21.4207558 24.7549547,20.9335971 25.5918446,19.0256552 C26.4288763,17.1177133 26.6480516,18.5993914 27.0665674,16.1840888 C27.0665674,16.1840888 26.6082402,14.9661921 23.8781116,16.0419527 C21.1478413,17.1177133 21.3272053,17.4425339 20.80909,18.1731276 C20.80909,18.1731276 21.0415831,17.5980899 21.2276059,17.4221875 C21.2276059,17.4221875 20.8821957,17.692751 20.6828552,17.9229104 C20.4836564,18.1529255 18.9291691,19.0460016 18.9291691,19.0460016 C18.9291691,19.0460016 18.0589849,17.7266617 16.6440501,17.5845256 C16.6440501,17.5845256 16.1459114,17.747008 15.8867829,18.1731276 L15.8071601,18.7618738 L15.7871835,18.193474 C15.7871835,18.193474 15.5480316,18.3761585 15.3686677,18.2747152 C15.1893038,18.3761585 14.9501519,18.193474 14.9501519,18.193474 L14.930317,18.7618738 L14.8505525,18.1731276 C14.5915657,17.747008 14.0932854,17.5845256 14.0932854,17.5845256 C12.6783505,17.7266617 11.8081663,19.0460016 11.8081663,19.0460016 C11.8081663,19.0460016 10.2538207,18.1529255 10.0544802,17.9229104 C9.85513973,17.692751 9.50972958,17.4221875 9.50972958,17.4221875 C9.69575235,17.5980899 9.9282454,18.1731276 9.9282454,18.1731276 C9.41013018,17.4425339 9.5894941,17.1177133 6.85936551,16.0419527 C4.12923691,14.9661921 3.67076799,16.1840888 3.67076799,16.1840888 C4.08928381,18.5993914 4.30845916,17.1177133 5.1454908,19.0256552 C5.98252244,20.9335971 7.59665608,21.4207558 8.63288651,21.359861 C9.66925863,21.2989661 10.0279865,21.4816506 10.0877745,21.6237867 C10.1475624,21.7657784 10.5061486,21.9484629 10.5061486,21.9484629 L11.1240049,21.8063269 C10.6058897,22.0499062 10.4530195,22.4288395 10.4530195,22.4288395 C10.5461017,22.3206141 10.8383827,22.3070498 10.8383827,22.3070498 C10.9711347,22.2123886 11.2502397,22.1581316 11.2502397,22.1581316 C11.1438398,22.7265315 11.5956498,23.0377878 11.5956498,23.0377878 C11.4096271,23.0377878 11.0775346,23.1595775 10.9313233,23.2406744 C10.7852536,23.3219156 10.765277,23.3895925 10.765277,23.3895925 C10.9646175,23.3083513 11.5425207,23.4097946 11.5425207,23.4097946 L11.5690144,23.7008488 C11.5640557,23.713403 11.559097,23.7252356 11.5541383,23.7375012 C11.5746815,23.7913253 11.6048589,23.8525087 11.6493457,23.918887 C11.6921323,23.9569823 11.7293935,23.9953663 11.7611293,24.0336059 C11.8060412,24.0650634 11.8833972,24.162322 11.9610365,24.4653532 C12.0804708,24.9321654 12.6585157,25.6020086 12.6585157,25.6020086 C12.8363211,25.3675202 12.9921666,24.8031608 13.100125,24.3197539 C13.0625804,24.7578504 12.9802656,25.201286 12.9139605,25.5099449 C12.8282455,25.7523698 12.7513145,25.9616056 12.7183036,26.1500621 C12.6185626,26.7183177 12.8975259,27.4083629 12.9772904,27.550499 C13.0570549,27.692635 13.1168429,29.3771997 13.6747696,30.2906222 C14.1517983,31.0712881 14.9712619,31.0906244 15.1997879,31.0798019 L15.5375475,31.0798019 C15.5716918,31.0815335 15.6184454,31.0819664 15.6756832,31.0798019 L15.6783751,31.0798019 C16.0063589,31.0669591 16.6577928,30.9532503 17.0625659,30.2906222 C17.6206342,29.3771997 17.6804222,27.692635 17.760045,27.550499 C17.8398095,27.4083629 18.1187729,26.7183177 18.0191735,26.1500621 C17.9840374,25.9494843 17.8990308,25.7255299 17.8067986,25.4626143 C17.7399268,25.1451531 17.6604456,24.7035934 17.6267263,24.2717018 C17.7349681,24.7652097 17.8950638,25.359728 18.0789614,25.6020086 C18.0789614,25.6020086 18.6568646,24.9321654 18.7764406,24.4653532 C18.8960165,23.9985409 19.0155925,24.018743 19.0155925,24.018743 C19.0155925,24.018743 18.8859574,24.2217738 18.87604,24.3740109 C18.8661225,24.526248 18.5273712,25.4699736 18.1884783,25.8151405 C18.1884783,25.8151405 18.2383488,26.0484745 18.1985374,26.4747384 C18.1585843,26.9010022 17.8995975,27.6519423 17.8995975,27.6519423 C17.8995975,27.6519423 17.700257,29.1945152 17.5608462,29.5598842 C17.4212937,29.9252532 17.0825424,30.6761932 17.0825424,30.6761932 C17.0825424,30.6761932 16.6940623,31.0285752 16.1524286,31.2147229 C15.7679154,31.3836988 15.1883121,31.3679701 14.6568791,31.2969742 C14.6802559,31.3406973 14.7047662,31.3844203 14.7309765,31.4272776 C14.930317,31.7519539 15.7473721,34.5327698 16.7836026,35.953553 C17.1215038,36.4167578 17.9263746,37.2410026 18.8815654,38.1689994 C18.8727814,38.1689994 18.8639974,38.169288 18.8552134,38.169288 C9.5134132,38.169288 1.91339824,30.4285735 1.91339824,20.913828 C1.91339824,17.7244972 2.76828127,14.7353112 4.25547171,12.1693588 C4.19242515,12.1218839 4.13802093,12.0771507 4.10047635,12.0387668 C3.92564611,11.8608442 3.86189116,11.6099056 3.84375642,11.3925889 C3.43869998,10.9487204 3.40611411,10.517839 3.48842884,10.2172609 C3.48658703,10.2051397 3.48630367,10.1944614 3.4848869,10.1826288 C1.42234346,13.2376158 0.213266267,16.9343073 0.213266267,20.913828 C0.213266267,31.3834102 8.57593209,39.9008946 18.8552134,39.9008946 C29.134353,39.9008946 37.4971605,31.3834102 37.4971605,20.913828 C37.4971605,11.8347258 31.2076639,4.22489188 22.8335222,2.36341476 L22.8335222,2.36341476 L22.8335222,2.36341476 L22.8335222,2.36341476 Z" id="Fill-12"></path>
                    <path d="M22.0466621,28.4439552 C22.0466621,28.4439552 22.3156889,28.5321133 22.6026509,28.2665087 C22.6026509,28.2665087 22.3816126,28.5631947 22.2353848,28.6099581 C22.2353848,28.6099581 21.8881544,29.8746881 22.3208594,30.2120625 C22.3208594,30.2120625 22.0012588,30.0822271 21.9876863,29.5414109 C21.9876863,29.5414109 21.6984622,30.4687665 22.0710603,30.8369397 C22.0710603,30.8369397 22.0020667,31.2590815 22.2294065,31.3430013 C22.4567463,31.4270623 22.8873508,31.0286554 22.8873508,31.0286554 C22.8873508,31.0286554 22.6026509,31.4906379 22.1305209,31.455742 C22.1305209,31.455742 21.8073656,31.9996663 22.0481163,32.1953378 C22.2890286,32.3910093 22.7110695,31.7343442 22.7110695,31.7343442 C22.7110695,31.7343442 22.4906776,32.3497558 22.1027296,32.4213843 C22.1027296,32.4213843 21.9498771,33.0558685 22.0954586,33.229783 L22.2410401,33.4036975 L22.6388443,32.1806448 C22.6388443,32.1806448 22.0553873,34.1820038 22.1061227,34.6528868 C22.1568581,35.1237699 22.367717,35.5493024 22.367717,35.5493024 C22.367717,35.5493024 22.9204742,35.3960146 23.0033635,34.9752856 C23.0033635,34.9752856 22.8180339,33.8166561 23.1261626,32.7442069 C23.1261626,32.7442069 22.8101166,34.8455915 23.5084553,35.2952827 C23.5084553,35.2952827 23.7685954,35.2353804 23.9151464,34.6493549 C24.0616973,34.0633294 24.4391428,32.0291936 24.4391428,32.0291936 L24.2250523,33.9938201 C24.2250523,33.9938201 25.0290628,32.9890435 25.1681812,32.0835861 C25.3072996,31.1779874 26.4767988,30.5959177 26.4767988,30.5959177 L26.5774617,30.1462265 L26.5569414,30.7877746 C26.5569414,30.7877746 26.8077099,30.3163264 26.8545674,30.118677 C26.9012634,29.9210277 26.9883537,29.4148248 26.9883537,29.4148248 L27.0074199,29.9132573 C27.0074199,29.9132573 27.2908272,29.3530859 27.33106,29.0445324 C27.3712928,28.735979 27.2287813,27.8942384 27.2287813,27.8942384 L27.3837343,28.4796988 C27.3837343,28.4796988 27.5608234,27.927439 27.520429,27.5923251 C27.4800346,27.2573525 27.2782241,26.8694002 27.2782241,26.8694002 L27.5975016,27.3241775 C27.5975016,27.3241775 27.8166009,25.9669096 26.9802749,25.6077783 L25.7198074,25.3287522 C25.7198074,25.3287522 26.3594934,25.3680278 26.6438701,25.4454487 C26.9282468,25.5228696 27.0927329,25.5515492 27.0927329,25.5515492 C27.0927329,25.5515492 26.7789491,25.0543883 26.8812277,24.3780855 C26.8812277,24.3780855 27.0747978,23.9683762 27.7600487,23.7670536 C27.7600487,23.7670536 27.8051289,23.636653 27.4283298,23.6236553 C27.051369,23.6105164 26.5125075,23.7652169 26.5125075,23.7652169 C26.5125075,23.7652169 26.2950239,23.9274053 26.3129591,24.113046 C26.3129591,24.113046 26.1832122,23.8181966 26.4389896,23.6842641 C26.4389896,23.6842641 26.0846498,23.3915339 25.4598289,23.45186 C24.8350081,23.5121862 23.5053854,24.1396064 23.532692,25.650162 C23.532692,25.650162 22.1096774,27.1018042 22.0466621,28.4439552 Z" id="Path"></path>
                </g>
            </g>
        </g>
    </g>
</svg>