<svg viewBox="0 0 183 50" version="1.1" xmlns="http://www.w3.org/2000/svg" xmlns:xlink="http://www.w3.org/1999/xlink">
    <!-- Generator: Sketch 46.2 (44496) - http://www.bohemiancoding.com/sketch -->
    <desc>Created with Sketch.</desc>
    <defs></defs>
    <g id="Symbols" stroke="none" stroke-width="1" fill="none" fill-rule="evenodd">
        <g id="Header/Tablet" transform="translate(-114.000000, -19.000000)" fill="#687179">
            <g id="Logo/Desktop">
                <g transform="translate(114.000000, 19.000000)">
                    <g id="Logo">
                        <path d="M63.5541099,26.3117895 L68.7921099,18.7157895 L67.1361099,18.7157895 L62.8521099,25.0157895 L58.6041099,18.7157895 L56.8761099,18.7157895 L62.1141099,26.3297895 L62.1141099,31.3157895 L63.5541099,31.3157895 L63.5541099,26.3117895 Z M71.1861099,18.7157895 L71.1861099,31.3157895 L72.6081099,31.3157895 L72.6081099,18.7157895 L71.1861099,18.7157895 Z M85.4061099,18.7157895 L76.2981099,18.7157895 L76.2981099,31.3157895 L85.4961099,31.3157895 L85.4961099,30.0197895 L77.7201099,30.0197895 L77.7201099,25.6097895 L84.5961099,25.6097895 L84.5961099,24.3137895 L77.7201099,24.3137895 L77.7201099,20.0117895 L85.4061099,20.0117895 L85.4061099,18.7157895 Z M88.3581099,31.3157895 L96.8721099,31.3157895 L96.8721099,30.0017895 L89.7801099,30.0017895 L89.7801099,18.7157895 L88.3581099,18.7157895 L88.3581099,31.3157895 Z M110.57011,24.9977895 C110.57011,28.5617895 107.83411,31.3157895 103.87411,31.3157895 L99.5001099,31.3157895 L99.5001099,18.7157895 L103.87411,18.7157895 C107.83411,18.7157895 110.57011,21.4337895 110.57011,24.9977895 Z M109.09411,25.0337895 C109.09411,22.2257895 107.06011,20.0297895 103.87411,20.0297895 L100.92211,20.0297895 L100.92211,30.0017895 L103.87411,30.0017895 C107.06011,30.0017895 109.09411,27.8417895 109.09411,25.0337895 Z M122.41411,27.5897895 L122.41411,27.5537895 C122.41411,25.3577895 120.97411,24.4397895 118.41811,23.7737895 C116.24011,23.2157895 115.70011,22.9457895 115.70011,22.1177895 L115.70011,22.0817895 C115.70011,21.4697895 116.25811,20.9837895 117.32011,20.9837895 C118.38211,20.9837895 119.48011,21.4517895 120.59611,22.2257895 L122.03611,20.1377895 C120.75811,19.1117895 119.19211,18.5357895 117.35611,18.5357895 C114.78211,18.5357895 112.94611,20.0477895 112.94611,22.3337895 L112.94611,22.3697895 C112.94611,24.8717895 114.58411,25.5737895 117.12211,26.2217895 C119.22811,26.7617895 119.66011,27.1217895 119.66011,27.8237895 L119.66011,27.8597895 C119.66011,28.5977895 118.97611,29.0477895 117.84211,29.0477895 C116.40211,29.0477895 115.21411,28.4537895 114.08011,27.5177895 L112.44211,29.4797895 C113.95411,30.8297895 115.88011,31.4957895 117.78811,31.4957895 C120.50611,31.4957895 122.41411,30.0917895 122.41411,27.5897895 Z M134.09611,21.2717895 L134.09611,18.7157895 L123.65611,18.7157895 L123.65611,21.2717895 L127.49011,21.2717895 L127.49011,31.3157895 L130.26211,31.3157895 L130.26211,21.2717895 L134.09611,21.2717895 Z M147.11011,31.3157895 L143.87011,31.3157895 L141.17011,27.2837895 L138.99211,27.2837895 L138.99211,31.3157895 L136.22011,31.3157895 L136.22011,18.7157895 L141.98011,18.7157895 C144.95011,18.7157895 146.73211,20.2817895 146.73211,22.8737895 L146.73211,22.9097895 C146.73211,24.9437895 145.63411,26.2217895 144.03211,26.8157895 L147.11011,31.3157895 Z M143.92411,23.0537895 L143.92411,23.0177895 C143.92411,21.8297895 143.09611,21.2177895 141.74611,21.2177895 L138.99211,21.2177895 L138.99211,24.8357895 L141.80011,24.8357895 C143.15011,24.8357895 143.92411,24.1157895 143.92411,23.0537895 Z M158.82811,31.3157895 L158.82811,28.8497895 L151.98811,28.8497895 L151.98811,26.2037895 L157.92811,26.2037895 L157.92811,23.7377895 L151.98811,23.7377895 L151.98811,21.1817895 L158.73811,21.1817895 L158.73811,18.7157895 L149.23411,18.7157895 L149.23411,31.3157895 L158.82811,31.3157895 Z M170.88811,31.3157895 L170.88811,28.8497895 L164.04811,28.8497895 L164.04811,26.2037895 L169.98811,26.2037895 L169.98811,23.7377895 L164.04811,23.7377895 L164.04811,21.1817895 L170.79811,21.1817895 L170.79811,18.7157895 L161.29411,18.7157895 L161.29411,31.3157895 L170.88811,31.3157895 Z M182.89411,21.2717895 L182.89411,18.7157895 L172.45411,18.7157895 L172.45411,21.2717895 L176.28811,21.2717895 L176.28811,31.3157895 L179.06011,31.3157895 L179.06011,21.2717895 L182.89411,21.2717895 Z" id="YIELDSTREET"></path>
                        <g id="YS_Logo_blk-Copy-2">
                            <path d="M5.57608687,13.4245005 C5.57608687,13.4245005 5.54235825,13.8767855 5.69377822,14.0276068 C5.84519819,14.178428 6.55188453,14.5974752 6.73685371,14.6979035 C6.73685371,14.6979035 7.66223785,15.5022239 8.21732481,15.7368546 L8.4191583,15.8876758 C8.4191583,15.8876758 8.43602261,16.2731277 9.39495596,16.5579725 C9.39495596,16.5579725 9.91649371,17.0774481 10.1689201,17.2114717 C10.4211671,17.3454953 11.5652491,18.6022793 11.5652491,18.6022793 C11.5652491,18.6022793 11.6156626,18.9877312 11.8512247,19.2223619 C12.0867868,19.4569926 14.1729378,22.339215 14.3243578,22.5904646 C14.4755983,22.8418929 14.5766048,22.7748811 14.5766048,22.7748811 C14.5766048,22.7748811 15.5859517,21.300264 17.6048248,20.9650263 C17.6048248,20.9650263 17.6554177,20.6801814 17.4365405,20.4287531 C17.2178427,20.1775035 16.9991449,20.0768965 16.9150028,20.0768965 C16.8310401,20.0768965 16.6627558,20.0602775 16.6627558,20.0602775 C16.6627558,20.0602775 15.8215138,18.8871242 15.7542359,18.83691 C15.6869581,18.7866958 15.8887916,18.6692912 15.602816,18.2840179 C15.3168403,17.898566 14.9298583,17.7141496 14.8457161,17.7141496 C14.7617534,17.7141496 14.5261913,17.7477448 14.5261913,17.7477448 C14.5261913,17.7477448 14.0215178,17.2952811 13.9205114,17.0774481 C13.8195049,16.859615 13.2812823,15.6530451 12.8270224,15.6196286 L12.3727625,15.5860333 L11.2455448,14.4130587 C11.2455448,14.4130587 11.026847,13.6757501 10.4211671,13.7093454 C9.81548726,13.7427619 9.73152452,13.6925477 9.63051807,13.7929761 L9.71466021,13.6087383 C9.71466021,13.6087383 9.46223379,12.5697873 8.2004605,12.7542038 C8.2004605,12.7542038 8.09963346,12.1509188 7.42667574,12.1007046 C7.42667574,12.1007046 7.42667574,11.5476339 7.25839146,11.4638244 C7.25839146,11.4638244 7.44336064,11.0617536 7.24152715,10.8271229 C7.24152715,10.8271229 7.44336064,10.4750876 7.37608281,10.1902427 C7.37608281,10.1902427 8.48643613,6.28586692 10.9427049,3.67187042 C13.3989736,1.05769522 13.4999801,0.555017334 13.4999801,0.555017334 C13.4999801,0.555017334 13.4493872,0.286970113 12.9951272,0.789648002 C12.5410467,1.29232589 9.38652381,3.98191171 8.70513394,4.78623207 C8.02392347,5.59055243 6.18176676,7.75208523 5.57608687,10.6176887 C5.57608687,10.6176887 5.40780259,10.7935277 5.29011124,11.4974197 C5.29011124,11.4974197 4.98727129,11.6314433 5.15537617,12.3519542 C5.15537617,12.3519542 4.81898701,12.7876203 5.57608687,13.4245005 L5.57608687,13.4245005 L5.57608687,13.4245005 L5.57608687,13.4245005 Z M24.3342226,22.7748811 C24.3342226,22.7748811 24.435229,22.8418929 24.586649,22.5904646 C24.738069,22.339215 26.82422,19.4569926 27.0596027,19.2223619 C27.2951648,18.9877312 27.3457577,18.6022793 27.3457577,18.6022793 C27.3457577,18.6022793 28.4896602,17.3454953 28.7420867,17.2114717 C28.9943337,17.0774481 29.5158714,16.5579725 29.5158714,16.5579725 C30.4748048,16.2731277 30.4916691,15.8876758 30.4916691,15.8876758 L30.6935026,15.7368546 C31.2487689,15.5022239 32.1739737,14.6979035 32.1739737,14.6979035 C32.3591222,14.5974752 33.0656292,14.178428 33.2170491,14.0276068 C33.3684691,13.8767855 33.3349199,13.4245005 33.3349199,13.4245005 C34.0918404,12.7876203 33.7554512,12.3519542 33.7554512,12.3519542 C33.9237355,11.6314433 33.6208955,11.4974197 33.6208955,11.4974197 C33.5030248,10.7935277 33.3349199,10.6176887 33.3349199,10.6176887 C32.72924,7.75208523 30.8870833,5.59055243 30.2056934,4.78623207 C29.5243036,3.98191171 26.36996,1.29232589 25.9157001,0.789648002 C25.4614402,0.286970113 25.4110267,0.555017334 25.4110267,0.555017334 C25.4110267,0.555017334 25.5118537,1.05769522 27.9681225,3.67187042 C30.4243912,6.28586692 31.5347446,10.1902427 31.5347446,10.1902427 C31.4674667,10.4750876 31.6693002,10.8271229 31.6693002,10.8271229 C31.4674667,11.0617536 31.6524359,11.4638244 31.6524359,11.4638244 C31.484331,11.5476339 31.484331,12.1007046 31.484331,12.1007046 C30.8113733,12.1509188 30.7103669,12.7542038 30.7103669,12.7542038 C29.4485936,12.5697873 29.1963466,13.6087383 29.1963466,13.6087383 L29.2803093,13.7929761 C29.1794823,13.6925477 29.0953401,13.7427619 28.4896602,13.7093454 C27.8839803,13.6757501 27.6652825,14.4130587 27.6652825,14.4130587 L26.5382443,15.5860333 C26.5382443,15.5860333 26.5382443,15.5860333 26.0839844,15.6196286 C25.6297245,15.6530451 25.0913224,16.859615 24.990316,17.0774481 C24.8894889,17.2952811 24.3848155,17.7477448 24.3848155,17.7477448 C24.3848155,17.7477448 24.1492534,17.7141496 24.0651113,17.7141496 C23.9809691,17.7141496 23.593987,17.898566 23.3080114,18.2840179 C23.0220358,18.6692912 23.2238693,18.7866958 23.1565914,18.83691 C23.0893136,18.8871242 22.2480716,20.0602775 22.2480716,20.0602775 C22.2480716,20.0602775 22.0799667,20.0768965 21.9958246,20.0768965 C21.9116824,20.0768965 21.6929846,20.1775035 21.4742868,20.4287531 C21.255589,20.6801814 21.3060026,20.9650263 21.3060026,20.9650263 C23.3248757,21.300264 24.3342226,22.7748811 24.3342226,22.7748811 L24.3342226,22.7748811 L24.3342226,22.7748811 L24.3342226,22.7748811 Z M23.8704541,4.15489152 C25.195917,4.15489152 26.4935718,4.27622756 27.7533716,4.50656947 C27.652724,4.38898609 27.5501029,4.27301099 27.444073,4.16025246 C26.6586268,3.32430253 26.0418236,2.62880934 25.5922283,2.07341549 C25.0235064,2.03231492 24.4494022,2.01051375 23.8704541,2.01051375 C18.5041949,2.01051375 13.5516495,3.80428575 9.58225744,6.81999569 C8.72379232,8.37877963 8.24136542,9.82230326 8.10609213,10.2545741 C8.11595954,10.4666888 8.07397818,10.6662946 8.02069414,10.8283738 C8.04168482,10.9196886 8.05137283,11.0122542 8.05244927,11.1037477 C11.9773482,6.83572112 17.6152305,4.15489152 23.8704541,4.15489152 L23.8704541,4.15489152 L23.8704541,4.15489152 L23.8704541,4.15489152 Z M23.8539486,27.0346875 C23.7466629,27.1247514 23.6217952,27.2348295 23.4938776,27.3499111 C23.4739634,27.372427 23.4551256,27.3947643 23.4382613,27.4171016 C23.4242675,27.4923335 23.4212176,27.5779299 23.4422082,27.663705 C23.479525,27.7423322 23.5473411,27.8422245 23.6650324,27.95677 C23.6905083,27.9728528 23.7161636,27.9889356 23.7470217,28.0030528 C23.7470217,28.0030528 23.7301574,28.0000149 23.7021698,27.9935818 C23.7057579,27.9967984 23.7080902,27.9996575 23.7118578,28.0030528 C23.7118578,28.0030528 23.6673647,27.9959049 23.6034956,27.9664197 C23.4623019,27.9226386 23.2586743,27.8345404 23.1840408,27.6805026 C23.1445711,27.7006955 23.0889548,27.7348269 23.0130654,27.7914742 C22.7880883,28.0012658 22.619804,28.1622728 22.619804,28.1622728 C22.634336,28.1368977 22.6503033,28.1117013 22.6657324,28.0863261 C22.6395389,28.1106291 22.6129866,28.1351107 22.5846402,28.1622728 C22.5846402,28.1622728 22.6318243,28.1045533 22.7104048,28.0137747 C23.1316538,27.357059 23.8325991,26.696948 24.0410706,26.5861552 C24.2653301,26.4671422 24.605128,26.5954475 24.605128,26.5954475 L24.31987,26.7330451 C24.1856731,26.8111361 24.0159536,26.9162107 23.8539486,27.0346875 L23.8539486,27.0346875 L23.8539486,27.0346875 L23.8539486,27.0346875 Z M20.0779579,37.3198381 C20.0779579,37.3198381 19.9703134,37.3366357 19.8475986,37.3475363 L19.1543678,37.3539695 C18.9986421,37.3457493 18.8330489,37.3198381 18.8330489,37.3198381 C16.6458915,36.3646965 17.1085835,35.7908968 17.1085835,35.7908968 C17.0328736,36.0171286 17.386127,36.33128 17.5249885,36.4443959 C17.6636705,36.5575118 18.4207704,36.6956455 18.7489068,36.708333 C19.0768638,36.7208419 19.2535802,36.4821012 19.2535802,36.4821012 C19.2535802,36.4821012 19.2788767,36.0296375 19.2535802,35.8663074 C19.2282837,35.7027986 19.1525737,35.5646649 18.9128853,35.3509419 C18.6731968,35.1372189 17.8278284,34.3832915 17.9286554,34.3455861 C18.0296619,34.3078808 18.2693504,34.4460145 18.6604588,34.8734605 C19.0515673,35.3007277 19.4554137,35.237826 19.4554137,35.237826 C19.4554137,35.237826 19.8592601,35.3007277 20.2503685,34.8734605 C20.641477,34.4460145 20.8811655,34.3078808 20.9821719,34.3455861 C21.0831784,34.3832915 20.23781,35.1372189 19.9979421,35.3509419 C19.7582536,35.5646649 19.6825436,35.7027986 19.6572472,35.8663074 C19.6321301,36.0296375 19.6572472,36.4821012 19.6572472,36.4821012 C19.6572472,36.4821012 19.8339636,36.7208419 20.1621,36.708333 C20.490057,36.6956455 21.2471569,36.5575118 21.3860183,36.4443959 C21.5247004,36.33128 21.8779538,36.0171286 21.8022438,35.7908968 C21.8022438,35.7908968 22.2649359,36.3646965 20.0779579,37.3198381 L20.0779579,37.3198381 L20.0779579,37.3198381 L20.0779579,37.3198381 Z M15.755133,27.6958707 C15.6392357,27.9051262 15.2823941,27.9862552 15.2122457,28.0003723 C15.2041724,28.0021593 15.199149,28.0030528 15.199149,28.0030528 C15.4799218,27.7512671 15.5141886,27.5598814 15.5179562,27.5028767 C15.517418,27.4955501 15.5175974,27.4880447 15.5168798,27.4808968 C15.2623004,27.0627431 14.3410427,26.5954475 14.3410427,26.5954475 C14.3410427,26.5954475 14.6808406,26.4671422 14.9051,26.5861552 C15.1293595,26.7053468 15.9235967,27.4598104 16.3261872,28.1622728 C16.0281913,27.8783215 15.854166,27.7521606 15.755133,27.6958707 L15.755133,27.6958707 L15.755133,27.6958707 L15.755133,27.6958707 Z M28.908218,2.55125434 C29.7069404,3.27355225 30.4426908,3.95743006 30.7541423,4.32519085 L30.7667008,4.3398441 C31.011951,4.6295138 31.3966007,5.08590886 31.8212584,5.67704234 C39.7257756,8.83017115 45.3240088,16.5376009 45.3240088,25.523616 C45.3240088,28.5539792 44.6860355,31.4381673 43.5390831,34.0521638 C43.3657754,34.0283969 43.1895972,34.0092762 43.0083955,34.0019496 C41.326091,33.9349378 40.2492869,34.4712109 40.2492869,34.4712109 C40.2492869,34.4712109 39.23994,34.571818 39.0381065,34.5048062 C38.8360936,34.4376157 38.2978709,34.6722464 38.0285802,34.8398652 C37.781536,34.9937243 36.569638,36.670449 33.5376504,36.9456442 L33.00481,38.1452449 L33.0028365,38.0852023 L32.3605575,39.4608206 L32.4079211,37.7755184 C32.1716414,38.0274828 31.9545582,38.350569 31.9050417,38.7179724 C31.7360398,39.9718973 30.8093998,41.302305 30.7701096,41.3582375 L30.5833463,41.6241404 C30.5542823,41.7751403 30.5284476,41.9052326 30.5067393,42.0045887 C30.2993442,42.9482937 29.8635632,43.1586214 29.6857704,43.2050829 L29.4493112,43.2670912 L29.2526805,43.1227031 C29.2230783,43.1010806 29.1949113,43.0778498 29.1678208,43.0533682 C28.9381791,43.3044391 28.6443095,43.4559751 28.4437319,43.5192342 L28.0038246,43.6584401 L27.8202907,43.2365338 C27.8095262,43.2116947 27.5529734,42.6162725 27.489822,41.9477627 C27.4632696,41.667564 27.5477706,41.1103832 27.6638473,40.522645 L27.5745023,40.4011303 C27.3846891,40.1427327 27.3532928,39.6868738 27.480134,39.04499 C27.1774734,38.6257642 27.3823568,38.0294485 27.5176301,37.733703 C27.4551963,37.5721599 27.4318733,37.3895304 27.4363585,37.2113683 C27.0646261,36.5439308 27.3147202,35.5182034 27.3741041,35.3010851 L27.5271387,34.7410451 C27.5388002,34.6618819 27.5535116,34.5784298 27.5694789,34.4930121 C27.5515382,34.4733553 27.5335974,34.454592 27.5156566,34.4347565 L27.4067563,34.394192 L27.4099856,34.3169944 C26.3631425,33.1327618 25.2475864,31.4281602 24.2669447,28.974992 L24.3006734,28.6145579 C24.3006734,28.6145579 25.0324768,28.4889331 25.2847238,28.5895401 C25.2847238,28.5895401 25.2596067,28.5057307 25.0744581,28.4051236 C24.8894889,28.3046953 24.4687782,28.153874 24.2333955,28.153874 C24.2333955,28.153874 24.8053468,27.7684221 24.6707911,27.0645301 C24.6707911,27.0645301 25.0240446,27.1317206 25.1923289,27.2489466 C25.1923289,27.2489466 25.5624467,27.2657442 25.680138,27.3997678 C25.680138,27.3997678 25.4867367,26.9305065 24.8306433,26.628864 L25.6128602,26.8048817 C25.6128602,26.8048817 26.0671201,26.5786499 26.1428301,26.4028109 C26.2185401,26.2267932 26.6728,26.0005614 27.9849868,26.075972 C29.2971736,26.1513826 31.3413432,25.5480976 32.4011036,23.1853507 C33.4610434,20.8226038 33.7385869,22.6574764 34.2685568,19.6664268 C34.2685568,19.6664268 33.6881734,18.1582144 30.2309899,19.4904091 C26.773627,20.8226038 27.000757,21.2248534 26.3446636,22.1296021 C26.3446636,22.1296021 26.6390714,21.41749 26.8746335,21.1996569 C26.8746335,21.1996569 26.4372379,21.5347159 26.1848114,21.8197395 C25.9325644,22.1045843 23.9641048,23.2105472 23.9641048,23.2105472 C23.9641048,23.2105472 22.8621836,21.57671 21.0704404,21.4006923 C21.0704404,21.4006923 20.4396435,21.6019064 20.1115071,22.1296021 L20.0106801,22.8586905 L19.9853836,22.1547985 C19.9853836,22.1547985 19.6825436,22.3810304 19.4554137,22.2554056 C19.2282837,22.3810304 18.9254438,22.1547985 18.9254438,22.1547985 L18.9003267,22.8586905 L18.7993203,22.1296021 C18.4713633,21.6019064 17.8403869,21.4006923 17.8403869,21.4006923 C16.0486437,21.57671 14.9467226,23.2105472 14.9467226,23.2105472 C14.9467226,23.2105472 12.9784423,22.1045843 12.7260159,21.8197395 C12.4735895,21.5347159 12.0361939,21.1996569 12.0361939,21.1996569 C12.271756,21.41749 12.5661638,22.1296021 12.5661638,22.1296021 C11.9100704,21.2248534 12.1372003,20.8226038 8.68001688,19.4904091 C5.22283341,18.1582144 4.64227058,19.6664268 4.64227058,19.6664268 C5.17224048,22.6574764 5.44978396,20.8226038 6.50972376,23.1853507 C7.56966356,25.5480976 9.61365376,26.1513826 10.9258406,26.075972 C12.2382068,26.0005614 12.6924667,26.2267932 12.7681767,26.4028109 C12.8438867,26.5786499 13.2979672,26.8048817 13.2979672,26.8048817 L14.0803635,26.628864 C13.4242701,26.9305065 13.2306894,27.3997678 13.2306894,27.3997678 C13.3485601,27.2657442 13.7186779,27.2489466 13.7186779,27.2489466 C13.8867828,27.1317206 14.2402156,27.0645301 14.2402156,27.0645301 C14.1054806,27.7684221 14.6776112,28.153874 14.6776112,28.153874 C14.4420491,28.153874 14.0215178,28.3046953 13.8363692,28.4051236 C13.6514001,28.5057307 13.6261036,28.5895401 13.6261036,28.5895401 C13.87853,28.4889331 14.6103334,28.6145579 14.6103334,28.6145579 L14.6438826,28.974992 C14.6376034,28.9905388 14.6313241,29.005192 14.6250448,29.0203813 C14.6510589,29.0870358 14.6892727,29.1628038 14.7456067,29.2450049 C14.7997878,29.2921812 14.846972,29.3397149 14.8871593,29.3870699 C14.9440315,29.4260261 15.041988,29.5464687 15.1403033,29.9217348 C15.2915439,30.4998233 16.0235267,31.3293401 16.0235267,31.3293401 C16.2486832,31.0389556 16.4460315,30.3400672 16.58274,29.7414284 C16.535197,30.2839559 16.4309612,30.8330954 16.3469985,31.2153307 C16.2384569,31.5155436 16.1410386,31.7746559 16.0992367,32.0080357 C15.9729337,32.711749 16.3261872,33.5662835 16.4271937,33.7423012 C16.5282001,33.9183189 16.6039101,36.004441 17.310417,37.1356003 C17.9144822,38.1023573 18.9521755,38.1263028 19.2415599,38.1129005 L19.6692675,38.1129005 C19.7125047,38.1150449 19.7717092,38.115581 19.8441898,38.1129005 L19.8475986,38.1129005 C20.2629271,38.0969964 21.087843,37.9561822 21.6004103,37.1356003 C22.3070967,36.004441 22.3828067,33.9183189 22.4836337,33.7423012 C22.5846402,33.5662835 22.9378936,32.711749 22.8117701,32.0080357 C22.767277,31.7596452 22.6596325,31.4823057 22.5428382,31.1567177 C22.4581578,30.7635818 22.3575102,30.2167654 22.3148112,29.6819219 C22.4518786,30.2930696 22.6546091,31.0293059 22.8874801,31.3293401 C22.8874801,31.3293401 23.6192835,30.4998233 23.7707035,29.9217348 C23.9221234,29.3436463 24.0735434,29.368664 24.0735434,29.368664 C24.0735434,29.368664 23.9093855,29.6200923 23.896827,29.8086189 C23.8842684,29.9971454 23.455305,31.1658313 23.0261621,31.5932773 C23.0261621,31.5932773 23.0893136,31.8822322 23.0389001,32.4101065 C22.9883071,32.9379808 22.6603501,33.867926 22.6603501,33.867926 C22.6603501,33.867926 22.4079237,35.7782092 22.2313867,36.2306729 C22.0546703,36.6831366 21.6257068,37.6130818 21.6257068,37.6130818 C21.6257068,37.6130818 21.1337713,38.0494626 20.4478962,38.2799833 C19.9609842,38.4892388 19.2270279,38.4697607 18.5540702,38.3818412 C18.5836724,38.4359867 18.6147099,38.4901323 18.6479003,38.5432056 C18.9003267,38.9452765 19.9349701,42.3889685 21.2471569,44.1484304 C21.6750439,44.7220515 22.6942582,45.7427753 23.9038239,46.8919831 C23.8927006,46.8919831 23.8815773,46.8923405 23.8704541,46.8923405 C12.0408585,46.8923405 2.41689934,37.3064357 2.41689934,25.523616 C2.41689934,21.5740295 3.49944449,17.8722974 5.38268553,14.694687 C5.30284917,14.6358953 5.23395667,14.5804988 5.18641367,14.5329651 C4.96502476,14.3126303 4.88429136,14.0018742 4.8613272,13.7327548 C4.34840101,13.1830793 4.30713728,12.6494867 4.41137306,12.2772584 C4.40904076,12.2622478 4.40868195,12.2490241 4.40688787,12.2343709 C1.79507277,16.0175893 0.264008749,20.5954785 0.264008749,25.523616 C0.264008749,38.4888814 10.8537187,49.0367182 23.8704541,49.0367182 C36.88701,49.0367182 47.4768994,38.4888814 47.4768994,25.523616 C47.4768994,14.280286 39.51246,4.85646044 28.908218,2.55125434 L28.908218,2.55125434 L28.908218,2.55125434 L28.908218,2.55125434 Z" id="Fill-12"></path>
                            <path d="M27.7692881,34.4929507 C27.7692881,34.4929507 28.0979448,34.5982734 28.4485119,34.2809551 C28.4485119,34.2809551 28.1784805,34.6354064 27.9998413,34.6912747 C27.9998413,34.6912747 27.5756471,36.2022503 28.1042613,36.6053121 C28.1042613,36.6053121 27.7138211,36.4501975 27.6972402,35.8040832 C27.6972402,35.8040832 27.3439096,36.911997 27.7990942,37.3518542 C27.7990942,37.3518542 27.7148081,37.8561879 27.9925378,37.956447 C28.2702675,38.0568749 28.7963156,37.5808973 28.7963156,37.5808973 C28.7963156,37.5808973 28.4485119,38.1328288 27.8717342,38.0911385 C27.8717342,38.0911385 27.4769514,38.7409661 27.7710646,38.9747352 C28.0653752,39.2085043 28.5809616,38.4239853 28.5809616,38.4239853 C28.5809616,38.4239853 28.3117197,39.1592187 27.8377829,39.2447934 C27.8377829,39.2447934 27.6510507,40.002813 27.8289003,40.210589 L28.00675,40.418365 L28.4927276,38.9571814 C28.4927276,38.9571814 27.7799472,41.3482091 27.8419281,41.9107741 C27.903909,42.473339 28.1615048,42.9817236 28.1615048,42.9817236 C28.1615048,42.9817236 28.8367808,42.7985904 28.9380426,42.2959446 C28.9380426,42.2959446 28.7116347,40.9117275 29.0880601,39.6304702 C29.0880601,39.6304702 28.7019625,42.1409987 29.5550881,42.6782457 C29.5550881,42.6782457 29.8728883,42.6066803 30.0519223,41.9065544 C30.2309563,41.2064285 30.6920626,38.7762424 30.6920626,38.7762424 L30.430519,41.1233857 C30.430519,41.1233857 31.4127386,39.922977 31.5826926,38.8412252 C31.7526466,37.7593045 33.1813656,37.0639047 33.1813656,37.0639047 L33.3043404,36.5266577 L33.2792717,37.2931166 C33.2792717,37.2931166 33.5856232,36.7298765 33.6428667,36.4937443 C33.6999128,36.2576122 33.8063068,35.6528507 33.8063068,35.6528507 L33.8295989,36.248329 C33.8295989,36.248329 34.1758235,35.579091 34.2249739,35.2104616 C34.2741244,34.8418322 34.1000252,33.836203 34.1000252,33.836203 L34.2893235,34.5356537 C34.2893235,34.5356537 34.5056645,33.8758678 34.4563166,33.4755065 C34.4069688,33.075314 34.1604269,32.6118267 34.1604269,32.6118267 L34.5504723,33.15515 C34.5504723,33.15515 34.8181351,31.5336193 33.7964372,31.1045644 L32.2565869,30.7712113 C32.2565869,30.7712113 33.0380594,30.8181339 33.3854683,30.9106288 C33.7328771,31.0031238 33.9338216,31.0373874 33.9338216,31.0373874 C33.9338216,31.0373874 33.5504875,30.4434282 33.6754363,29.6354478 C33.6754363,29.6354478 33.9119112,29.1459674 34.7490481,28.9054468 C34.7490481,28.9054468 34.8041203,28.749657 34.3438035,28.7341286 C33.8832894,28.7184315 33.2249891,28.9032526 33.2249891,28.9032526 C33.2249891,28.9032526 32.9593002,29.0970193 32.9812107,29.3188046 C32.9812107,29.3188046 32.8227054,28.9665474 33.135176,28.806538 C33.135176,28.806538 32.7022966,28.4568126 31.9389841,28.5288844 C31.1756715,28.6009562 29.5513377,29.3505364 29.5846968,31.1552003 C29.5846968,31.1552003 27.8462708,32.8894802 27.7692881,34.4929507 Z" id="Path"></path>
                        </g>
                    </g>
                </g>
            </g>
        </g>
    </g>
</svg>